G04 ================== begin FILE IDENTIFICATION RECORD ==================*
G04 Layout Name:  E:/Cadence/SPB_17.2/share/pcb/examples/board_design/VUmeterboard.brd*
G04 Film Name:    vumeterTOP30Jul20*
G04 File Format:  Gerber RS274X*
G04 File Origin:  Cadence Allegro 17.2-S069*
G04 Origin Date:  Tue Jul 08 15:44:25 2025*
G04 *
G04 Layer:  ETCH/TOP*
G04 Layer:  PIN/TOP*
G04 Layer:  VIA CLASS/TOP*
G04 *
G04 Offset:    (0.0000 0.0000)*
G04 Mirror:    No*
G04 Mode:      Positive*
G04 Rotation:  0*
G04 FullContactRelief:  No*
G04 UndefLineWidth:     0.0000*
G04 ================== end FILE IDENTIFICATION RECORD ====================*
%FSLAX25Y25*MOMM*%
%IR0*IPPOS*OFA0.00000B0.00000*MIA0B0*SFA1.00000B1.00000*%
%ADD21C,1.1*%
%ADD12C,1.2*%
%ADD19C,1.13*%
%ADD14C,1.15*%
%ADD13C,1.25*%
%ADD10C,3.302*%
%ADD22R,1.1X1.1*%
%ADD20R,1.13X1.13*%
%ADD17C,1.65*%
%ADD15R,1.15X1.15*%
%ADD16C,1.725*%
%ADD18R,1.65X1.65*%
%ADD11R,1.725X1.725*%
%ADD23C,.5*%
G75*
%LPD*%
G75*
G54D10*
X-1400000Y-4650000D03*
Y4650000D03*
X1400000Y-4650000D03*
Y4650000D03*
G54D11*
X-848000Y-4633000D03*
X565000D03*
G54D20*
X921000Y714000D03*
G54D12*
X-900000Y-3879000D03*
Y-3379000D03*
X-922000Y-2831000D03*
Y-1201000D03*
X-657000Y970000D03*
Y1220000D03*
X8000Y-2791000D03*
Y-1241000D03*
X905000Y-3879000D03*
Y-3379000D03*
X938000Y-2791000D03*
Y-1241000D03*
G54D21*
X1041000Y3948000D03*
G54D22*
X841000D03*
G54D13*
X-1016000Y-70000D03*
X-762000D03*
X-508000D03*
G54D23*
G01X-922000Y-2831000D02*
Y-3259300D01*
X-900000Y-3281300D01*
Y-3379000D01*
G01X-762000Y-70000D02*
Y-1041000D01*
X-922000Y-1201000D01*
G01X-1110400Y2184000D02*
X-977900Y2051500D01*
X969600D01*
X1102100Y2184000D01*
G01X-1110400Y3174000D02*
X-373000D01*
G01X921000Y968000D02*
X608000D01*
X558000Y918000D01*
Y-20000D01*
X508000Y-70000D01*
X-508000D01*
G01X364500Y2184000D02*
X-373000D01*
G01X584000Y-4652000D02*
X565000Y-4633000D01*
G01X938000Y-2791000D02*
X8000D01*
G01X364500Y2184000D02*
X-6000Y2554500D01*
Y3678000D01*
X264000Y3948000D01*
G01X364500Y3174000D02*
X1102100D01*
G01X264000Y3948000D02*
X841000D01*
G01X264000D02*
X82000Y4130000D01*
Y4499000D01*
X201000Y4618000D01*
G01X455000D02*
X987000D01*
X1304000Y4301000D01*
Y3939000D01*
G01X905000Y-3879000D02*
X1040000Y-4014000D01*
Y-4535960D01*
X942960Y-4633000D01*
X819000D01*
G01X905000Y-3379000D02*
Y-2921700D01*
X938000Y-2888700D01*
Y-2791000D01*
G01D02*
X1244000Y-2485000D01*
Y899000D01*
X921000Y1222000D01*
G01X1102100Y2184000D02*
X1304000Y2385900D01*
Y3939000D01*
G01D02*
X1295000Y3948000D01*
X1041000D01*
G54D14*
X-1110400Y2184000D03*
X-373000Y3174000D03*
X364500D03*
X1102100Y2184000D03*
G54D15*
X-1110400Y3174000D03*
X-373000Y2184000D03*
X364500D03*
X1102100Y3174000D03*
G54D16*
X-594000Y-4633000D03*
X819000D03*
G54D17*
X-53000Y4618000D03*
X455000D03*
X201000D03*
G54D18*
X-307000D03*
G54D19*
X127000Y714000D03*
Y968000D03*
Y1222000D03*
Y1476000D03*
X921000D03*
Y1222000D03*
Y968000D03*
M02*
