G04 ================== begin FILE IDENTIFICATION RECORD ==================*
G04 Layout Name:  E:/Cadence/SPB_17.2/share/pcb/examples/board_design/VUmeterboard.brd*
G04 Film Name:    vumeterBOTTOM30Jul20*
G04 File Format:  Gerber RS274X*
G04 File Origin:  Cadence Allegro 17.2-S069*
G04 Origin Date:  Tue Jul 08 15:44:25 2025*
G04 *
G04 Layer:  ETCH/BOTTOM*
G04 Layer:  PIN/BOTTOM*
G04 Layer:  VIA CLASS/BOTTOM*
G04 *
G04 Offset:    (0.0000 0.0000)*
G04 Mirror:    No*
G04 Mode:      Positive*
G04 Rotation:  0*
G04 FullContactRelief:  No*
G04 UndefLineWidth:     0.0000*
G04 ================== end FILE IDENTIFICATION RECORD ====================*
%FSLAX25Y25*MOMM*%
%IR0*IPPOS*OFA0.00000B0.00000*MIA0B0*SFA1.00000B1.00000*%
%ADD21C,1.1*%
%ADD12C,1.2*%
%ADD19C,1.13*%
%ADD14C,1.15*%
%ADD13C,1.25*%
%ADD10C,3.302*%
%ADD22R,1.1X1.1*%
%ADD20R,1.13X1.13*%
%ADD17C,1.65*%
%ADD15R,1.15X1.15*%
%ADD16C,1.725*%
%ADD18R,1.65X1.65*%
%ADD11R,1.725X1.725*%
%ADD23C,.5*%
%ADD24C,1.*%
%ADD27C,2.2004*%
%ADD28C,2.1504*%
%ADD33C,2.2504*%
%ADD25C,4.3024*%
%ADD32C,1.9044*%
%ADD26C,1.4544*%
%ADD30C,2.7254*%
%ADD29C,1.3844*%
%ADD31C,1.9794*%
G75*
%LPD*%
G75*
G36*
G01X-1749990Y4999990D02*
X1749990D01*
Y-4999990D01*
X-1749990D01*
Y4999990D01*
G37*
%LPC*%
G75*
G36*
G01X337040Y4557600D02*
G03X318960I-9040J-4627D01*
G02X201000Y4485480I-117960J60408D01*
G02Y4750520I0J132520D01*
G02X318960Y4678400I0J-132528D01*
G03X337040I9040J4627D01*
G02X455000Y4750520I117960J-60408D01*
G02Y4485480I0J-132520D01*
G02X337040Y4557600I0J132528D01*
G37*
G36*
G01X943380Y4019050D02*
G03X960760Y4015760I9619J3262D01*
G02X1041000Y4053020I80240J-67769D01*
G02Y3842980I0J-105020D01*
G02X960760Y3880240I0J105029D01*
G03X943380Y3876950I-7761J-6552D01*
G02X896000Y3842980I-47380J16057D01*
G01X786000D01*
G02X735980Y3893000I0J50020D01*
G01Y4003000D01*
G02X786000Y4053020I50020J0D01*
G01X896000D01*
G02X943380Y4019050I0J-50027D01*
G37*
G36*
G01X-371560Y3281530D02*
X-177050Y3476050D01*
G02X-124000Y3498020I53050J-53064D01*
G01X456010D01*
G02X509060Y3476050I0J-75034D01*
G01X716050Y3269060D01*
G02X738020Y3216010I-53064J-53050D01*
G01Y2169070D01*
X1219050Y1688050D01*
G02X1241020Y1635000I-53064J-53050D01*
G01Y1213000D01*
G02X1219050Y1159950I-75034J0D01*
G01X1027540Y968440D01*
X1027510Y966390D01*
G02X921000Y861480I-106510J1612D01*
G02X814480Y968000I0J106520D01*
G02X919390Y1074510I106522J0D01*
G01X921440Y1074540D01*
X946490Y1099580D01*
G03X937710Y1116800I-7185J7185D01*
G02X921000Y1115480I-16717J105199D01*
G02X1027520Y1222000I0J106520D01*
G02X1026200Y1205290I-106519J7D01*
G03X1043420Y1196510I10035J-1595D01*
G01X1090980Y1244070D01*
Y1603930D01*
X609950Y2084950D01*
G02X587980Y2138000I53064J53050D01*
G01Y3184940D01*
X424940Y3347980D01*
X-92930D01*
X-265470Y3175440D01*
X-265480Y3173350D01*
G02X-373000Y3066480I-107520J652D01*
G02X-480520Y3174000I0J107520D01*
G02X-373650Y3281520I107522J0D01*
G01X-371560Y3281530D01*
G37*
G36*
G01X289480Y2884570D02*
Y3096980D01*
G02X256980Y3174000I75013J77020D01*
G02X472020I107520J0D01*
G02X439520Y3096980I-107513J0D01*
G01Y2853500D01*
G02X417550Y2800450I-75034J0D01*
G01X202020Y2584930D01*
Y1661980D01*
G02X180050Y1608930I-75034J0D01*
G01X162780Y1591670D01*
G03X166220Y1575040I7183J-7185D01*
G02X233520Y1476000I-39225J-99040D01*
G02X127000Y1369480I-106520J0D01*
G02X110290Y1370800I7J106519D01*
G03X101510Y1353580I-1595J-10035D01*
G01X126560Y1328540D01*
X128610Y1328510D01*
G02X233520Y1222000I-1612J-106510D01*
G02X127000Y1115480I-106520J0D01*
G02X20490Y1220390I0J106522D01*
G01X20460Y1222440D01*
X-57550Y1300450D01*
G02X-79520Y1353500I53064J53050D01*
G01Y1530480D01*
G02X-57550Y1583530I75034J0D01*
G01X51980Y1693050D01*
Y2616000D01*
G02X73950Y2669050I75034J0D01*
G01X289480Y2884570D01*
G37*
G36*
G01X466030Y-4719250D02*
Y-4546750D01*
G02X478750Y-4534030I12720J0D01*
G01X651250D01*
G02X663970Y-4546750I0J-12720D01*
G01Y-4719250D01*
G02X651250Y-4731970I-12720J0D01*
G01X478750D01*
G02X466030Y-4719250I0J12720D01*
G37*
G36*
G01X814480Y657500D02*
Y770500D01*
G02X864500Y820520I50020J0D01*
G01X977500D01*
G02X1027520Y770500I0J-50020D01*
G01Y657500D01*
G02X977500Y607480I-50020J0D01*
G01X864500D01*
G02X814480Y657500I0J50020D01*
G37*
G36*
G01X256980Y2126500D02*
Y2241500D01*
G02X307000Y2291520I50020J0D01*
G01X422000D01*
G02X472020Y2241500I0J-50020D01*
G01Y2126500D01*
G02X422000Y2076480I-50020J0D01*
G01X307000D01*
G02X256980Y2126500I0J50020D01*
G37*
G36*
G01X-480520D02*
Y2241500D01*
G02X-430500Y2291520I50020J0D01*
G01X-315500D01*
G02X-265480Y2241500I0J-50020D01*
G01Y2126500D01*
G02X-315500Y2076480I-50020J0D01*
G01X-430500D01*
G02X-480520Y2126500I0J50020D01*
G37*
G36*
G01X994580Y3116500D02*
Y3231500D01*
G02X1044600Y3281520I50020J0D01*
G01X1159600D01*
G02X1209620Y3231500I0J-50020D01*
G01Y3116500D01*
G02X1159600Y3066480I-50020J0D01*
G01X1044600D01*
G02X994580Y3116500I0J50020D01*
G37*
G36*
G01X-439520Y4626930D02*
Y4700500D01*
G02X-389500Y4750520I50020J0D01*
G01X-224500D01*
G02X-174480Y4700500I0J-50020D01*
G01Y4535500D01*
G02X-224500Y4485480I-50020J0D01*
G01X-298070D01*
X-803980Y3979570D01*
Y1123430D01*
X-750570Y1070020D01*
X-702840D01*
X-701850Y1070460D01*
G02X-657000Y1080020I44857J-100458D01*
G02X-611170Y1070020I0J-110019D01*
G01X-534300D01*
G02X-514880Y1068120I17J-100022D01*
G01X-514390Y1068020D01*
X90360D01*
G02X127000Y1074520I36640J-100018D01*
G02X223260Y1013600I0J-106510D01*
G01X223640Y1012810D01*
X1008720Y227720D01*
G02X1038020Y157000I-70717J-70728D01*
G01Y-1195170D01*
G02X1048020Y-1241000I-100019J-45830D01*
G02X977320Y-1343750I-110015J0D01*
G01X976310Y-1344140D01*
X532020Y-1788430D01*
Y-3204050D01*
G02X502720Y-3274770I-100017J8D01*
G01X-730130Y-4507630D01*
X-726530Y-4511230D01*
X-726520Y-4511240D01*
G02X-711730Y-4546750I-35234J-35510D01*
G01Y-4719250D01*
G02X-761750Y-4769270I-50020J0D01*
G01X-934250D01*
G02X-984270Y-4719250I0J50020D01*
G01Y-4546750D01*
G02X-951360Y-4499750I50016J0D01*
G01X-948020Y-4498530D01*
Y-4484050D01*
G02X-918720Y-4413330I100017J-8D01*
G01X331980Y-3162620D01*
Y-1747000D01*
G02X361280Y-1676280I100017J-8D01*
G01X834860Y-1202690D01*
X835250Y-1201680D01*
G02X837980Y-1195170I102771J-39270D01*
G01Y115570D01*
X249590Y703960D01*
G03X232350Y698280I-7190J-7179D01*
G02X127000Y607480I-105350J15716D01*
G02X20480Y714000I0J106520D01*
G02X111280Y819350I106516J0D01*
G03X116960Y836590I-1499J10050D01*
G01X85570Y867980D01*
X-532300D01*
G02X-551720Y869880I-17J100022D01*
G01X-552210Y869980D01*
X-611160D01*
X-612150Y869540D01*
G02X-657000Y859980I-44857J100458D01*
G02X-702830Y869980I0J110019D01*
G01X-792000D01*
G02X-862720Y899280I8J100017D01*
G01X-974720Y1011280D01*
G02X-1004020Y1082000I70717J70728D01*
G01Y2116250D01*
G03X-1022490Y2122100I-10161J2D01*
G02X-1110400Y2076480I-87910J61892D01*
G02Y2291520I0J107520D01*
G02X-1022490Y2245900I0J-107512D01*
G03X-1004020Y2251750I8309J5848D01*
G01Y3070430D01*
G03X-1020720Y3078210I-10161J3D01*
G02X-1052900Y3066480I-32180J38276D01*
G01X-1167900D01*
G02X-1217920Y3116500I0J50020D01*
G01Y3231500D01*
G02X-1167900Y3281520I50020J0D01*
G01X-1052900D01*
G02X-1020720Y3269790I0J-50006D01*
G03X-1004020Y3277570I6539J7777D01*
G01Y4021000D01*
G02X-974720Y4091720I100017J-8D01*
G01X-439520Y4626930D01*
G37*
G54D27*
X-900000Y-3379000D03*
X905000Y-3879000D03*
Y-3379000D03*
X938000Y-2791000D03*
X8000D03*
X-922000Y-2831000D03*
Y-1201000D03*
G54D28*
X1102100Y2184000D03*
G54D33*
X-508000Y-70000D03*
X-762000D03*
X-1016000D03*
G54D25*
X1400000Y4650000D03*
Y-4650000D03*
X-1400000D03*
Y4650000D03*
G54D32*
X-53000Y4618000D03*
G54D26*
X-657000Y1220000D03*
X-900000Y-3879000D03*
X8000Y-1241000D03*
G54D30*
X819000Y-4633000D03*
G54D29*
X921000Y1476000D03*
G54D31*
X-594000Y-4633000D03*
%LPD*%
G75*
G54D10*
X-1400000Y-4650000D03*
Y4650000D03*
X1400000Y-4650000D03*
Y4650000D03*
G54D11*
X-848000Y-4633000D03*
X565000D03*
G54D20*
X921000Y714000D03*
G54D12*
X-900000Y-3879000D03*
Y-3379000D03*
X-922000Y-2831000D03*
Y-1201000D03*
X-657000Y970000D03*
Y1220000D03*
X8000Y-2791000D03*
Y-1241000D03*
X905000Y-3879000D03*
Y-3379000D03*
X938000Y-2791000D03*
Y-1241000D03*
G54D21*
X1041000Y3948000D03*
G54D22*
X841000D03*
G54D13*
X-1016000Y-70000D03*
X-762000D03*
X-508000D03*
G54D23*
G01X-900000Y-3956800D02*
Y-3879000D01*
G01D02*
Y-3801200D01*
G01X-977800Y-3879000D02*
X-900000D01*
G01D02*
X-822200D01*
G01X-594000Y-4737050D02*
Y-4633000D01*
G01D02*
Y-4528950D01*
G01Y-4633000D02*
X-489950D01*
G01X-69800Y-1241000D02*
X8000D01*
G01X-657000Y1142200D02*
Y1220000D01*
G01D02*
Y1297800D01*
G01X-734800Y1220000D02*
X-657000D01*
G01D02*
X-579200D01*
G01X-373000Y3174000D02*
X-124000Y3423000D01*
X456010D01*
X663000Y3216010D01*
Y2138000D01*
X1166000Y1635000D01*
Y1213000D01*
X921000Y968000D01*
G01X-138000Y4533000D02*
X-53000Y4618000D01*
G01X565000Y-4737050D02*
Y-4633000D01*
G01D02*
Y-4528950D01*
G01X460950Y-4633000D02*
X565000D01*
G01X8000Y-1318800D02*
Y-1241000D01*
G01D02*
Y-1163200D01*
G01Y-1241000D02*
X85800D01*
G01X364500Y3174000D02*
Y2853500D01*
X127000Y2616000D01*
Y1661980D01*
X-4500Y1530480D01*
Y1353500D01*
X127000Y1222000D01*
G01X-53000Y4517700D02*
Y4618000D01*
G01D02*
Y4718300D01*
G01X921000Y1401700D02*
Y1476000D01*
G01D02*
Y1550300D01*
G01X846700Y1476000D02*
X921000D01*
G01D02*
X995300D01*
G54D14*
X-1110400Y2184000D03*
X-373000Y3174000D03*
X364500D03*
X1102100Y2184000D03*
G54D24*
G01X938000Y-1241000D02*
X432000Y-1747000D01*
Y-3204050D01*
X-848000Y-4484050D01*
Y-4633000D01*
G01X-307000Y4618000D02*
X-904000Y4021000D01*
Y1082000D01*
X-792000Y970000D01*
X-657000D01*
G01X127000Y968000D02*
X-532300D01*
X-534300Y970000D01*
X-657000D01*
G01X938000Y-1241000D02*
Y157000D01*
X127000Y968000D01*
G54D15*
X-1110400Y3174000D03*
X-373000Y2184000D03*
X364500D03*
X1102100Y3174000D03*
G54D16*
X-594000Y-4633000D03*
X819000D03*
G54D17*
X-53000Y4618000D03*
X455000D03*
X201000D03*
G54D18*
X-307000D03*
G54D19*
X127000Y714000D03*
Y968000D03*
Y1222000D03*
Y1476000D03*
X921000D03*
Y1222000D03*
Y968000D03*
M02*
