G04 ================== begin FILE IDENTIFICATION RECORD ==================*
G04 Layout Name:  E:/Cadence/SPB_17.2/share/pcb/examples/board_design/VUmeterboard.brd*
G04 Film Name:    vumeterSILKSCREENTOP30Jul20*
G04 File Format:  Gerber RS274X*
G04 File Origin:  Cadence Allegro 17.2-S069*
G04 Origin Date:  Tue Jul 08 15:44:25 2025*
G04 *
G04 Layer:  USER PART NUMBER/SILKSCREEN_TOP*
G04 Layer:  TOLERANCE/SILKSCREEN_TOP*
G04 Layer:  REF DES/SILKSCREEN_TOP*
G04 Layer:  PACKAGE GEOMETRY/SILKSCREEN_TOP*
G04 Layer:  DEVICE TYPE/SILKSCREEN_TOP*
G04 Layer:  COMPONENT VALUE/SILKSCREEN_TOP*
G04 Layer:  BOARD GEOMETRY/SILKSCREEN_TOP*
G04 *
G04 Offset:    (0.0000 0.0000)*
G04 Mirror:    No*
G04 Mode:      Positive*
G04 Rotation:  0*
G04 FullContactRelief:  No*
G04 UndefLineWidth:     0.1500*
G04 ================== end FILE IDENTIFICATION RECORD ====================*
%FSLAX25Y25*MOMM*%
%IR0*IPPOS*OFA0.00000B0.00000*MIA0B0*SFA1.00000B1.00000*%
%ADD10C,.1*%
%ADD11C,.2*%
%ADD12C,.4*%
%ADD13C,.254*%
%ADD14C,.15*%
G75*
%LPD*%
G75*
G54D10*
G01X-650000Y-3989000D02*
X-1154000D01*
G01D02*
Y-3269000D01*
G01D02*
X-650000D01*
G01D02*
Y-3989000D01*
G01X-782000Y1310000D02*
X-532000D01*
G01X-782000Y880000D02*
Y1310000D01*
G01X-532000Y880000D02*
X-782000D01*
G01X-532000Y1310000D02*
Y880000D01*
G01X1155000Y-3989000D02*
X651000D01*
G01D02*
Y-3269000D01*
G01D02*
X1155000D01*
G01D02*
Y-3989000D01*
G54D11*
G01X-1000000Y-4765000D02*
X-442000D01*
G01X-1000000Y-4633000D02*
Y-4765000D01*
G01X-442000Y-4501000D02*
X-848000D01*
G01X-922000Y-2736000D02*
Y-2371000D01*
G01X-807000D02*
X-1037000D01*
G01D02*
Y-1661000D01*
G01X-922000D02*
Y-1296000D01*
G01X-1037000Y-1661000D02*
X-807000D01*
G01X-1110400Y2509000D02*
Y2276500D01*
G01Y3081500D02*
Y2849000D01*
G01D02*
X-1029200Y2767800D01*
G01X-1191600Y2849000D02*
X-1029200D01*
G01X-1191600Y2509000D02*
Y2849000D01*
G01X-1029200Y2509000D02*
X-1191600D01*
G01X-1029200Y2849000D02*
Y2509000D01*
G01X-442000Y-4765000D02*
Y-4501000D01*
G01X123000Y-2331000D02*
X-107000D01*
G01D02*
Y-1701000D01*
G01X-807000Y-1661000D02*
Y-2371000D01*
G01X-107000Y-1701000D02*
X123000D01*
G01X-373000Y2276500D02*
Y2509000D01*
G01Y2849000D02*
Y3081500D01*
G01Y2509000D02*
X-454200Y2590200D01*
G01X-291800Y2509000D02*
X-454200D01*
G01X-291800Y2849000D02*
Y2509000D01*
G01X-454200Y2849000D02*
X-291800D01*
G01X-454200Y2509000D02*
Y2849000D01*
G01X-451500Y4491000D02*
X599500D01*
G01X-451500Y4618000D02*
Y4491000D01*
G01X599500Y4745000D02*
X-307000D01*
G01X413000Y-4765000D02*
X971000D01*
G01X413000Y-4633000D02*
Y-4765000D01*
G01X971000Y-4501000D02*
X565000D01*
G01X8000Y-2696000D02*
Y-2331000D01*
G01X123000Y-1701000D02*
Y-2331000D01*
G01X8000Y-1701000D02*
Y-1336000D01*
G01X977500Y587000D02*
X194000D01*
G01X854000Y1603000D02*
X194000D01*
G01X364500Y2276500D02*
Y2509000D01*
G01Y2849000D02*
Y3081500D01*
G01Y2509000D02*
X283300Y2590200D01*
G01X445700Y2509000D02*
X283300D01*
G01X445700Y2849000D02*
Y2509000D01*
G01X283300Y2849000D02*
X445700D01*
G01X283300Y2509000D02*
Y2849000D01*
G01X599500Y4491000D02*
Y4745000D01*
G01X1203500Y3948000D02*
G02I-262500J0D01*
G01X971000Y-4765000D02*
Y-4501000D01*
G01X938000Y-2696000D02*
Y-2331000D01*
G01X1053000D02*
X823000D01*
G01X1053000Y-1701000D02*
Y-2331000D01*
G01X823000D02*
Y-1701000D01*
G01X938000D02*
Y-1336000D01*
G01X823000Y-1701000D02*
X1053000D01*
G01X1102100Y2509000D02*
Y2276500D01*
G01Y3081500D02*
Y2849000D01*
G01D02*
X1183300Y2767800D01*
G01X1020900Y2849000D02*
X1183300D01*
G01X1020900Y2509000D02*
Y2849000D01*
G01X1183300Y2509000D02*
X1020900D01*
G01X1183300Y2849000D02*
Y2509000D01*
G54D12*
G01X-202950Y-434200D02*
G02I-17316J0D01*
G54D13*
G01X-285500Y-912000D02*
X-1238500D01*
G01D02*
Y41000D01*
G01D02*
X-285500D01*
G01D02*
Y-912000D01*
G54D14*
G01X-871890Y-4846670D02*
X-824130D01*
G01X-850000Y-4812000D02*
Y-4881340D01*
G01X-920800Y-4400000D02*
Y-4321300D01*
X-932480Y-4337040D01*
G01Y-4400000D02*
X-909120D01*
G01X-860590Y-4334420D02*
X-854750Y-4326550D01*
X-847940Y-4322610D01*
X-840150Y-4321300D01*
X-830420Y-4323920D01*
X-823610Y-4330480D01*
X-821660Y-4338350D01*
X-822630Y-4346220D01*
X-826530Y-4352780D01*
X-845990Y-4365900D01*
X-854750Y-4375080D01*
X-860590Y-4388200D01*
X-862540Y-4400000D01*
X-821660D01*
G01X-787730Y-4321300D02*
X-763400Y-4400000D01*
X-739070Y-4321300D01*
G01X-706110Y-4400000D02*
Y-4321300D01*
X-686650D01*
X-678860Y-4325240D01*
X-673020Y-4330480D01*
X-668150Y-4338350D01*
X-664260Y-4347530D01*
X-663290Y-4360650D01*
X-664260Y-4373770D01*
X-668150Y-4382950D01*
X-673020Y-4390820D01*
X-678860Y-4396070D01*
X-686650Y-4400000D01*
X-706110D01*
G01X-584590Y-4327860D02*
X-590430Y-4323920D01*
X-597240Y-4321300D01*
X-605030D01*
X-613790Y-4325240D01*
X-620600Y-4331790D01*
X-625470Y-4339660D01*
X-629360Y-4352780D01*
X-630330Y-4364590D01*
X-628390Y-4376390D01*
X-625470Y-4384260D01*
X-619630Y-4392130D01*
X-612810Y-4397380D01*
X-606000Y-4400000D01*
X-599190D01*
X-592370Y-4397380D01*
X-586530Y-4393440D01*
X-581670Y-4388200D01*
G01X-1399390Y-3577860D02*
X-1405230Y-3573920D01*
X-1412040Y-3571300D01*
X-1419830D01*
X-1428590Y-3575240D01*
X-1435400Y-3581790D01*
X-1440270Y-3589660D01*
X-1444160Y-3602780D01*
X-1445130Y-3614590D01*
X-1443190Y-3626390D01*
X-1440270Y-3634260D01*
X-1434430Y-3642130D01*
X-1427610Y-3647380D01*
X-1420800Y-3650000D01*
X-1413990D01*
X-1407170Y-3647380D01*
X-1401330Y-3643440D01*
X-1396470Y-3638200D01*
G01X-1360590Y-3584420D02*
X-1354750Y-3576550D01*
X-1347940Y-3572610D01*
X-1340150Y-3571300D01*
X-1330420Y-3573920D01*
X-1323610Y-3580480D01*
X-1321660Y-3588350D01*
X-1322630Y-3596220D01*
X-1326530Y-3602780D01*
X-1345990Y-3615900D01*
X-1354750Y-3625080D01*
X-1360590Y-3638200D01*
X-1362540Y-3650000D01*
X-1321660D01*
G01X-1240270Y-2100000D02*
Y-2021300D01*
X-1215930D01*
X-1208150Y-2025240D01*
X-1203280Y-2030480D01*
X-1201330Y-2040980D01*
X-1203280Y-2051470D01*
X-1209120Y-2058030D01*
X-1215930Y-2061960D01*
X-1240270D01*
G01X-1215930D02*
X-1201330Y-2100000D01*
G01X-1163510Y-2084260D02*
X-1157670Y-2093440D01*
X-1149890Y-2098690D01*
X-1141130Y-2100000D01*
X-1133340Y-2098690D01*
X-1125550Y-2092130D01*
X-1120690Y-2084260D01*
X-1119710Y-2076390D01*
X-1121660Y-2067210D01*
X-1128470Y-2060650D01*
X-1135290Y-2058030D01*
X-1144050D01*
G01X-1135290D02*
X-1129450Y-2054090D01*
X-1124580Y-2047530D01*
X-1122630Y-2039660D01*
X-1124580Y-2031790D01*
X-1129450Y-2025240D01*
X-1138210Y-2021300D01*
X-1146970Y-2022610D01*
X-1155730Y-2027860D01*
G01X-1440270Y-450000D02*
Y-371300D01*
X-1415930D01*
X-1408150Y-375240D01*
X-1403280Y-380480D01*
X-1401330Y-390980D01*
X-1403280Y-401470D01*
X-1409120Y-408030D01*
X-1415930Y-411960D01*
X-1440270D01*
G01X-1415930D02*
X-1401330Y-450000D01*
G01X-1330420D02*
Y-371300D01*
X-1366430Y-427700D01*
X-1317770D01*
G01X-1492210Y400000D02*
Y478700D01*
X-1472750D01*
X-1464960Y474760D01*
X-1459120Y469520D01*
X-1454250Y461650D01*
X-1450360Y452470D01*
X-1449390Y439350D01*
X-1450360Y426230D01*
X-1454250Y417050D01*
X-1459120Y409180D01*
X-1464960Y403930D01*
X-1472750Y400000D01*
X-1492210D01*
G01X-1406700Y435410D02*
X-1375550D01*
X-1378470Y444600D01*
X-1383340Y449840D01*
X-1390150Y452470D01*
X-1396970Y451150D01*
X-1402810Y447220D01*
X-1406700Y438040D01*
X-1408650Y430170D01*
Y422300D01*
X-1406700Y414430D01*
X-1401830Y406560D01*
X-1395990Y401310D01*
X-1389180Y400000D01*
X-1382370Y402620D01*
X-1375550Y410490D01*
G01X-1328000Y409180D02*
X-1323130Y403930D01*
X-1316320Y400000D01*
X-1310480D01*
X-1304640Y402620D01*
X-1300750Y406560D01*
X-1298800Y411800D01*
X-1299770Y419680D01*
X-1303670Y423610D01*
X-1321190Y431480D01*
X-1325080Y440660D01*
X-1323130Y447220D01*
X-1319240Y451150D01*
X-1313400Y452470D01*
X-1307560Y451150D01*
X-1301720Y447220D01*
G01X-1234700Y452470D02*
Y400000D01*
G01Y473450D02*
X-1236650Y474760D01*
Y477390D01*
X-1234700Y478700D01*
X-1232750Y477390D01*
Y474760D01*
X-1234700Y473450D01*
G01X-1169630Y380320D02*
X-1162810Y375080D01*
X-1155030Y373770D01*
X-1148210Y375080D01*
X-1142370Y381640D01*
X-1138480Y390820D01*
Y452470D01*
G01Y441970D02*
X-1142370Y447220D01*
X-1148210Y451150D01*
X-1155030Y452470D01*
X-1162810Y449840D01*
X-1167680Y444600D01*
X-1171570Y435410D01*
X-1173520Y426230D01*
X-1172550Y418360D01*
X-1168650Y409180D01*
X-1162810Y402620D01*
X-1155030Y400000D01*
X-1149190Y401310D01*
X-1142370Y406560D01*
X-1138480Y411800D01*
G01X-1093850Y400000D02*
Y452470D01*
G01Y439350D02*
X-1089950Y445910D01*
X-1084110Y451150D01*
X-1076330Y452470D01*
X-1069510Y451150D01*
X-1063670Y445910D01*
X-1060750Y436730D01*
Y400000D01*
G01X-937420D02*
Y478700D01*
G01Y439350D02*
X-932550Y447220D01*
X-926710Y451150D01*
X-920870Y452470D01*
X-912110Y449840D01*
X-906270Y444600D01*
X-902380Y435410D01*
Y424920D01*
X-904330Y414430D01*
X-908220Y406560D01*
X-915030Y401310D01*
X-920870Y400000D01*
X-926710Y401310D01*
X-932550Y405250D01*
X-937420Y411800D01*
G01X-861640Y376390D02*
X-855800Y373770D01*
X-848010Y376390D01*
X-843150Y381640D01*
X-839250Y388200D01*
X-833410Y409180D01*
X-820760Y452470D01*
G01X-851910D02*
X-833410Y409180D01*
G01X-664330Y400000D02*
X-703270D01*
Y478700D01*
X-664330D01*
G01X-679910Y440660D02*
X-703270D01*
G01X-605100Y400000D02*
Y478700D01*
G01X-526400Y400000D02*
Y478700D01*
G01X-447700Y452470D02*
Y400000D01*
G01Y473450D02*
X-449650Y474760D01*
Y477390D01*
X-447700Y478700D01*
X-445750Y477390D01*
Y474760D01*
X-447700Y473450D01*
G01X-369000Y400000D02*
X-374840Y401310D01*
X-380680Y406560D01*
X-384570Y415740D01*
X-386520Y426230D01*
X-384570Y436730D01*
X-380680Y445910D01*
X-374840Y451150D01*
X-369000Y452470D01*
X-363160Y451150D01*
X-357320Y445910D01*
X-353430Y436730D01*
X-352450Y426230D01*
X-353430Y415740D01*
X-357320Y406560D01*
X-363160Y401310D01*
X-369000Y400000D01*
G01X-290300Y478700D02*
Y400000D01*
G01X-303930Y452470D02*
X-276670D01*
G01X-162100Y478700D02*
X-148470Y400000D01*
X-132900Y478700D01*
X-117330Y400000D01*
X-103700Y478700D01*
G01X-70750Y400000D02*
Y478700D01*
G01Y440660D02*
X-65880Y447220D01*
X-61010Y451150D01*
X-53230Y452470D01*
X-47390Y451150D01*
X-40570Y445910D01*
X-37650Y438040D01*
Y400000D01*
G01X24500Y452470D02*
Y400000D01*
G01Y473450D02*
X22550Y474760D01*
Y477390D01*
X24500Y478700D01*
X26450Y477390D01*
Y474760D01*
X24500Y473450D01*
G01X103200Y478700D02*
Y400000D01*
G01X89570Y452470D02*
X116830D01*
G01X165350Y400000D02*
Y452470D01*
G01Y439350D02*
X169250Y445910D01*
X175090Y451150D01*
X182870Y452470D01*
X189690Y451150D01*
X195530Y445910D01*
X198450Y436730D01*
Y400000D01*
G01X246000Y435410D02*
X277150D01*
X274230Y444600D01*
X269360Y449840D01*
X262550Y452470D01*
X255730Y451150D01*
X249890Y447220D01*
X246000Y438040D01*
X244050Y430170D01*
Y422300D01*
X246000Y414430D01*
X250870Y406560D01*
X256710Y401310D01*
X263520Y400000D01*
X270330Y402620D01*
X277150Y410490D01*
G01X318860Y376390D02*
X324700Y373770D01*
X332490Y376390D01*
X337350Y381640D01*
X341250Y388200D01*
X347090Y409180D01*
X359740Y452470D01*
G01X328590D02*
X347090Y409180D01*
G01X-1449390Y322140D02*
X-1455230Y326080D01*
X-1462040Y328700D01*
X-1469830D01*
X-1478590Y324760D01*
X-1485400Y318210D01*
X-1490270Y310340D01*
X-1494160Y297220D01*
X-1495130Y285410D01*
X-1493190Y273610D01*
X-1490270Y265740D01*
X-1484430Y257870D01*
X-1477610Y252620D01*
X-1470800Y250000D01*
X-1463990D01*
X-1457170Y252620D01*
X-1451330Y256560D01*
X-1446470Y261800D01*
G01X-1331890Y315580D02*
X-1326050Y323450D01*
X-1319240Y327390D01*
X-1311450Y328700D01*
X-1301720Y326080D01*
X-1294910Y319520D01*
X-1292960Y311650D01*
X-1293930Y303780D01*
X-1297830Y297220D01*
X-1317290Y284100D01*
X-1326050Y274920D01*
X-1331890Y261800D01*
X-1333840Y250000D01*
X-1292960D01*
G01X-1234700Y328700D02*
X-1242490Y326080D01*
X-1248330Y319520D01*
X-1252220Y311650D01*
X-1255140Y301150D01*
X-1256110Y289350D01*
X-1255140Y277540D01*
X-1252220Y267050D01*
X-1248330Y259180D01*
X-1242490Y252620D01*
X-1234700Y250000D01*
X-1226910Y252620D01*
X-1221070Y259180D01*
X-1217180Y267050D01*
X-1214260Y277540D01*
X-1213290Y289350D01*
X-1214260Y301150D01*
X-1217180Y311650D01*
X-1221070Y319520D01*
X-1226910Y326080D01*
X-1234700Y328700D01*
G01X-1174490Y315580D02*
X-1168650Y323450D01*
X-1161840Y327390D01*
X-1154050Y328700D01*
X-1144320Y326080D01*
X-1137510Y319520D01*
X-1135560Y311650D01*
X-1136530Y303780D01*
X-1140430Y297220D01*
X-1159890Y284100D01*
X-1168650Y274920D01*
X-1174490Y261800D01*
X-1176440Y250000D01*
X-1135560D01*
G01X-1077300Y328700D02*
X-1085090Y326080D01*
X-1090930Y319520D01*
X-1094820Y311650D01*
X-1097740Y301150D01*
X-1098710Y289350D01*
X-1097740Y277540D01*
X-1094820Y267050D01*
X-1090930Y259180D01*
X-1085090Y252620D01*
X-1077300Y250000D01*
X-1069510Y252620D01*
X-1063670Y259180D01*
X-1059780Y267050D01*
X-1056860Y277540D01*
X-1055890Y289350D01*
X-1056860Y301150D01*
X-1059780Y311650D01*
X-1063670Y319520D01*
X-1069510Y326080D01*
X-1077300Y328700D01*
G01X-939370Y250000D02*
Y328700D01*
X-915030D01*
X-907250Y324760D01*
X-902380Y319520D01*
X-900430Y309020D01*
X-902380Y298530D01*
X-908220Y291970D01*
X-915030Y288040D01*
X-939370D01*
G01X-915030D02*
X-900430Y250000D01*
G01X-855800Y285410D02*
X-824650D01*
X-827570Y294600D01*
X-832440Y299840D01*
X-839250Y302470D01*
X-846070Y301150D01*
X-851910Y297220D01*
X-855800Y288040D01*
X-857750Y280170D01*
Y272300D01*
X-855800Y264430D01*
X-850930Y256560D01*
X-845090Y251310D01*
X-838280Y250000D01*
X-831470Y252620D01*
X-824650Y260490D01*
G01X-780020Y302470D02*
X-762500Y250000D01*
X-744980Y302470D01*
G01X-605100Y250000D02*
Y328700D01*
X-616780Y312960D01*
G01Y250000D02*
X-593420D01*
G01X-526400Y247380D02*
X-528350Y248690D01*
Y251310D01*
X-526400Y252620D01*
X-524450Y251310D01*
Y248690D01*
X-526400Y247380D01*
G01X-447700Y328700D02*
X-455490Y326080D01*
X-461330Y319520D01*
X-465220Y311650D01*
X-468140Y301150D01*
X-469110Y289350D01*
X-468140Y277540D01*
X-465220Y267050D01*
X-461330Y259180D01*
X-455490Y252620D01*
X-447700Y250000D01*
X-439910Y252620D01*
X-434070Y259180D01*
X-430180Y267050D01*
X-427260Y277540D01*
X-426290Y289350D01*
X-427260Y301150D01*
X-430180Y311650D01*
X-434070Y319520D01*
X-439910Y326080D01*
X-447700Y328700D01*
G01X-1495130Y628700D02*
X-1470800Y550000D01*
X-1446470Y628700D01*
G01X-1413510D02*
Y572300D01*
X-1409620Y560490D01*
X-1401830Y552620D01*
X-1392100Y550000D01*
X-1382370Y552620D01*
X-1374580Y560490D01*
X-1370690Y572300D01*
Y628700D01*
G01X-1260010Y550000D02*
Y628700D01*
X-1234700Y563120D01*
X-1209390Y628700D01*
Y550000D01*
G01X-1170600Y585410D02*
X-1139450D01*
X-1142370Y594600D01*
X-1147240Y599840D01*
X-1154050Y602470D01*
X-1160870Y601150D01*
X-1166710Y597220D01*
X-1170600Y588040D01*
X-1172550Y580170D01*
Y572300D01*
X-1170600Y564430D01*
X-1165730Y556560D01*
X-1159890Y551310D01*
X-1153080Y550000D01*
X-1146270Y552620D01*
X-1139450Y560490D01*
G01X-1077300Y628700D02*
Y550000D01*
G01X-1090930Y602470D02*
X-1063670D01*
G01X-1013200Y585410D02*
X-982050D01*
X-984970Y594600D01*
X-989840Y599840D01*
X-996650Y602470D01*
X-1003470Y601150D01*
X-1009310Y597220D01*
X-1013200Y588040D01*
X-1015150Y580170D01*
Y572300D01*
X-1013200Y564430D01*
X-1008330Y556560D01*
X-1002490Y551310D01*
X-995680Y550000D01*
X-988870Y552620D01*
X-982050Y560490D01*
G01X-933530Y550000D02*
Y602470D01*
G01Y591970D02*
X-928660Y597220D01*
X-923790Y601150D01*
X-916980Y602470D01*
X-912110Y601150D01*
X-906270Y597220D01*
G01X-783910Y550000D02*
Y628700D01*
G01X-746930D02*
X-783910Y580170D01*
G01X-741090Y550000D02*
X-767370Y602470D01*
G01X-705210Y550000D02*
Y628700D01*
X-685750D01*
X-677960Y624760D01*
X-672120Y619520D01*
X-667250Y611650D01*
X-663360Y602470D01*
X-662390Y589350D01*
X-663360Y576230D01*
X-667250Y567050D01*
X-672120Y559180D01*
X-677960Y553930D01*
X-685750Y550000D01*
X-705210D01*
G01X-585630D02*
X-624570D01*
Y628700D01*
X-585630D01*
G01X-601210Y590660D02*
X-624570D01*
G01X-539050Y576230D02*
X-513750D01*
G01X-447700Y628700D02*
X-455490Y626080D01*
X-461330Y619520D01*
X-465220Y611650D01*
X-468140Y601150D01*
X-469110Y589350D01*
X-468140Y577540D01*
X-465220Y567050D01*
X-461330Y559180D01*
X-455490Y552620D01*
X-447700Y550000D01*
X-439910Y552620D01*
X-434070Y559180D01*
X-430180Y567050D01*
X-427260Y577540D01*
X-426290Y589350D01*
X-427260Y601150D01*
X-430180Y611650D01*
X-434070Y619520D01*
X-439910Y626080D01*
X-447700Y628700D01*
G01X-369000Y550000D02*
Y628700D01*
X-380680Y612960D01*
G01Y550000D02*
X-357320D01*
G01X-999390Y1122140D02*
X-1005230Y1126080D01*
X-1012040Y1128700D01*
X-1019830D01*
X-1028590Y1124760D01*
X-1035400Y1118210D01*
X-1040270Y1110340D01*
X-1044160Y1097220D01*
X-1045130Y1085410D01*
X-1043190Y1073610D01*
X-1040270Y1065740D01*
X-1034430Y1057870D01*
X-1027610Y1052620D01*
X-1020800Y1050000D01*
X-1013990D01*
X-1007170Y1052620D01*
X-1001330Y1056560D01*
X-996470Y1061800D01*
G01X-942100Y1050000D02*
Y1128700D01*
X-953780Y1112960D01*
G01Y1050000D02*
X-930420D01*
G01X-1392210Y2650000D02*
Y2728700D01*
X-1372750D01*
X-1364960Y2724760D01*
X-1359120Y2719520D01*
X-1354250Y2711650D01*
X-1350360Y2702470D01*
X-1349390Y2689350D01*
X-1350360Y2676230D01*
X-1354250Y2667050D01*
X-1359120Y2659180D01*
X-1364960Y2653930D01*
X-1372750Y2650000D01*
X-1392210D01*
G01X-1292100D02*
Y2728700D01*
X-1303780Y2712960D01*
G01Y2650000D02*
X-1280420D01*
G01X-625870Y-4846670D02*
X-574130D01*
G01X-290270Y-2100000D02*
Y-2021300D01*
X-265930D01*
X-258150Y-2025240D01*
X-253280Y-2030480D01*
X-251330Y-2040980D01*
X-253280Y-2051470D01*
X-259120Y-2058030D01*
X-265930Y-2061960D01*
X-290270D01*
G01X-265930D02*
X-251330Y-2100000D01*
G01X-210590Y-2034420D02*
X-204750Y-2026550D01*
X-197940Y-2022610D01*
X-190150Y-2021300D01*
X-180420Y-2023920D01*
X-173610Y-2030480D01*
X-171660Y-2038350D01*
X-172630Y-2046220D01*
X-176530Y-2052780D01*
X-195990Y-2065900D01*
X-204750Y-2075080D01*
X-210590Y-2088200D01*
X-212540Y-2100000D01*
X-171660D01*
G01X-182480Y1178700D02*
X-159120D01*
G01X-170800D02*
Y1100000D01*
G01X-182480D02*
X-159120D01*
G01X-70690Y1172140D02*
X-76530Y1176080D01*
X-83340Y1178700D01*
X-91130D01*
X-99890Y1174760D01*
X-106700Y1168210D01*
X-111570Y1160340D01*
X-115460Y1147220D01*
X-116430Y1135410D01*
X-114490Y1123610D01*
X-111570Y1115740D01*
X-105730Y1107870D01*
X-98910Y1102620D01*
X-92100Y1100000D01*
X-85290D01*
X-78470Y1102620D01*
X-72630Y1106560D01*
X-67770Y1111800D01*
G01X-13400Y1100000D02*
Y1178700D01*
X-25080Y1162960D01*
G01Y1100000D02*
X-1720D01*
G01X-642210Y2650000D02*
Y2728700D01*
X-622750D01*
X-614960Y2724760D01*
X-609120Y2719520D01*
X-604250Y2711650D01*
X-600360Y2702470D01*
X-599390Y2689350D01*
X-600360Y2676230D01*
X-604250Y2667050D01*
X-609120Y2659180D01*
X-614960Y2653930D01*
X-622750Y2650000D01*
X-642210D01*
G01X-563510Y2665740D02*
X-557670Y2656560D01*
X-549890Y2651310D01*
X-541130Y2650000D01*
X-533340Y2651310D01*
X-525550Y2657870D01*
X-520690Y2665740D01*
X-519710Y2673610D01*
X-521660Y2682790D01*
X-528470Y2689350D01*
X-535290Y2691970D01*
X-544050D01*
G01X-535290D02*
X-529450Y2695910D01*
X-524580Y2702470D01*
X-522630Y2710340D01*
X-524580Y2718210D01*
X-529450Y2724760D01*
X-538210Y2728700D01*
X-546970Y2727390D01*
X-555730Y2722140D01*
G01X-337520Y4428700D02*
Y4350000D01*
X-298580D01*
G01X-221830D02*
Y4402470D01*
G01Y4393290D02*
X-225720Y4398530D01*
X-231560Y4401150D01*
X-238380Y4402470D01*
X-245190Y4399840D01*
X-251030Y4394600D01*
X-254920Y4386730D01*
X-256870Y4376230D01*
X-254920Y4365740D01*
X-251030Y4357870D01*
X-245190Y4352620D01*
X-238380Y4350000D01*
X-231560Y4351310D01*
X-225720Y4355250D01*
X-221830Y4360490D01*
G01X-189850Y4350000D02*
Y4402470D01*
G01Y4388040D02*
X-186930Y4394600D01*
X-182060Y4399840D01*
X-175250Y4402470D01*
X-168440Y4399840D01*
X-163570Y4394600D01*
X-160650Y4388040D01*
Y4350000D01*
G01Y4388040D02*
X-157730Y4394600D01*
X-152860Y4399840D01*
X-146050Y4402470D01*
X-139240Y4399840D01*
X-134370Y4394600D01*
X-131450Y4386730D01*
Y4350000D01*
G01X-99470Y4323770D02*
Y4402470D01*
G01Y4390660D02*
X-94600Y4397220D01*
X-89740Y4401150D01*
X-81950Y4402470D01*
X-75140Y4401150D01*
X-68320Y4394600D01*
X-65400Y4385410D01*
X-64430Y4376230D01*
X-65400Y4367050D01*
X-68320Y4357870D01*
X-74160Y4352620D01*
X-81950Y4350000D01*
X-88760Y4351310D01*
X-95580Y4355250D01*
X-99470Y4360490D01*
G01X-321890Y4853330D02*
X-274130D01*
G01X-300000Y4888000D02*
Y4818660D01*
G01X-75870Y4853330D02*
X-24130D01*
G01X524130Y-4846670D02*
X575870D01*
G01X458760Y-4389510D02*
X466550Y-4396070D01*
X475310Y-4400000D01*
X483090D01*
X490880Y-4396070D01*
X496720Y-4389510D01*
X499640Y-4380320D01*
X497690Y-4371140D01*
X492830Y-4363270D01*
X484070Y-4358030D01*
X472390Y-4355400D01*
X465570Y-4350160D01*
X462650Y-4340980D01*
X464600Y-4331790D01*
X469470Y-4325240D01*
X476280Y-4321300D01*
X483090D01*
X489910Y-4323920D01*
X495750Y-4330480D01*
G01X557900Y-4347530D02*
Y-4400000D01*
G01Y-4326550D02*
X555950Y-4325240D01*
Y-4322610D01*
X557900Y-4321300D01*
X559850Y-4322610D01*
Y-4325240D01*
X557900Y-4326550D01*
G01X622970Y-4419680D02*
X629790Y-4424920D01*
X637570Y-4426230D01*
X644390Y-4424920D01*
X650230Y-4418360D01*
X654120Y-4409180D01*
Y-4347530D01*
G01Y-4358030D02*
X650230Y-4352780D01*
X644390Y-4348850D01*
X637570Y-4347530D01*
X629790Y-4350160D01*
X624920Y-4355400D01*
X621030Y-4364590D01*
X619080Y-4373770D01*
X620050Y-4381640D01*
X623950Y-4390820D01*
X629790Y-4397380D01*
X637570Y-4400000D01*
X643410Y-4398690D01*
X650230Y-4393440D01*
X654120Y-4388200D01*
G01X698750Y-4400000D02*
Y-4347530D01*
G01Y-4360650D02*
X702650Y-4354090D01*
X708490Y-4348850D01*
X716270Y-4347530D01*
X723090Y-4348850D01*
X728930Y-4354090D01*
X731850Y-4363270D01*
Y-4400000D01*
G01X811520D02*
Y-4347530D01*
G01Y-4356710D02*
X807630Y-4351470D01*
X801790Y-4348850D01*
X794970Y-4347530D01*
X788160Y-4350160D01*
X782320Y-4355400D01*
X778430Y-4363270D01*
X776480Y-4373770D01*
X778430Y-4384260D01*
X782320Y-4392130D01*
X788160Y-4397380D01*
X794970Y-4400000D01*
X801790Y-4398690D01*
X807630Y-4394750D01*
X811520Y-4389510D01*
G01X872700Y-4400000D02*
Y-4321300D01*
G01X400610Y-3577860D02*
X394770Y-3573920D01*
X387960Y-3571300D01*
X380170D01*
X371410Y-3575240D01*
X364600Y-3581790D01*
X359730Y-3589660D01*
X355840Y-3602780D01*
X354870Y-3614590D01*
X356810Y-3626390D01*
X359730Y-3634260D01*
X365570Y-3642130D01*
X372390Y-3647380D01*
X379200Y-3650000D01*
X386010D01*
X392830Y-3647380D01*
X398670Y-3643440D01*
X403530Y-3638200D01*
G01X436490Y-3634260D02*
X442330Y-3643440D01*
X450110Y-3648690D01*
X458870Y-3650000D01*
X466660Y-3648690D01*
X474450Y-3642130D01*
X479310Y-3634260D01*
X480290Y-3626390D01*
X478340Y-3617210D01*
X471530Y-3610650D01*
X464710Y-3608030D01*
X455950D01*
G01X464710D02*
X470550Y-3604090D01*
X475420Y-3597530D01*
X477370Y-3589660D01*
X475420Y-3581790D01*
X470550Y-3575240D01*
X461790Y-3571300D01*
X453030Y-3572610D01*
X444270Y-3577860D01*
G01X659730Y-2100000D02*
Y-2021300D01*
X684070D01*
X691850Y-2025240D01*
X696720Y-2030480D01*
X698670Y-2040980D01*
X696720Y-2051470D01*
X690880Y-2058030D01*
X684070Y-2061960D01*
X659730D01*
G01X684070D02*
X698670Y-2100000D01*
G01X757900D02*
Y-2021300D01*
X746220Y-2037040D01*
G01Y-2100000D02*
X769580D01*
G01X107790Y2650000D02*
Y2728700D01*
X127250D01*
X135040Y2724760D01*
X140880Y2719520D01*
X145750Y2711650D01*
X149640Y2702470D01*
X150610Y2689350D01*
X149640Y2676230D01*
X145750Y2667050D01*
X140880Y2659180D01*
X135040Y2653930D01*
X127250Y2650000D01*
X107790D01*
G01X219580D02*
Y2728700D01*
X183570Y2672300D01*
X232230D01*
G01X500610Y3872140D02*
X494770Y3876080D01*
X487960Y3878700D01*
X480170D01*
X471410Y3874760D01*
X464600Y3868210D01*
X459730Y3860340D01*
X455840Y3847220D01*
X454870Y3835410D01*
X456810Y3823610D01*
X459730Y3815740D01*
X465570Y3807870D01*
X472390Y3802620D01*
X479200Y3800000D01*
X486010D01*
X492830Y3802620D01*
X498670Y3806560D01*
X503530Y3811800D01*
G01X569580Y3800000D02*
Y3878700D01*
X533570Y3822300D01*
X582230D01*
G01X167290Y4350000D02*
Y4428700D01*
X192600Y4363120D01*
X217910Y4428700D01*
Y4350000D01*
G01X256700Y4385410D02*
X287850D01*
X284930Y4394600D01*
X280060Y4399840D01*
X273250Y4402470D01*
X266430Y4401150D01*
X260590Y4397220D01*
X256700Y4388040D01*
X254750Y4380170D01*
Y4372300D01*
X256700Y4364430D01*
X261570Y4356560D01*
X267410Y4351310D01*
X274220Y4350000D01*
X281030Y4352620D01*
X287850Y4360490D01*
G01X350000Y4428700D02*
Y4350000D01*
G01X336370Y4402470D02*
X363630D01*
G01X414100Y4385410D02*
X445250D01*
X442330Y4394600D01*
X437460Y4399840D01*
X430650Y4402470D01*
X423830Y4401150D01*
X417990Y4397220D01*
X414100Y4388040D01*
X412150Y4380170D01*
Y4372300D01*
X414100Y4364430D01*
X418970Y4356560D01*
X424810Y4351310D01*
X431620Y4350000D01*
X438430Y4352620D01*
X445250Y4360490D01*
G01X493770Y4350000D02*
Y4402470D01*
G01Y4391970D02*
X498640Y4397220D01*
X503510Y4401150D01*
X510320Y4402470D01*
X515190Y4401150D01*
X521030Y4397220D01*
G01X178110Y4853330D02*
X225870D01*
G01X200000Y4888000D02*
Y4818660D01*
G01X424130Y4853330D02*
X475870D01*
G01X778110Y-4846670D02*
X825870D01*
G01X800000Y-4812000D02*
Y-4881340D01*
G01X807790Y2650000D02*
Y2728700D01*
X827250D01*
X835040Y2724760D01*
X840880Y2719520D01*
X845750Y2711650D01*
X849640Y2702470D01*
X850610Y2689350D01*
X849640Y2676230D01*
X845750Y2667050D01*
X840880Y2659180D01*
X835040Y2653930D01*
X827250Y2650000D01*
X807790D01*
G01X889410Y2715580D02*
X895250Y2723450D01*
X902060Y2727390D01*
X909850Y2728700D01*
X919580Y2726080D01*
X926390Y2719520D01*
X928340Y2711650D01*
X927370Y2703780D01*
X923470Y2697220D01*
X904010Y2684100D01*
X895250Y2674920D01*
X889410Y2661800D01*
X887460Y2650000D01*
X928340D01*
G01X837810Y3803330D02*
X885570D01*
G01X859700Y3838000D02*
Y3768660D01*
G01X983830Y3803330D02*
X1035570D01*
M02*
